# AST/ASF file generated using VICON BodyLanguage
# -----------------------------------------------
:version 1.10
:name VICON
:units
  mass 1.0
  length 0.45
  angle deg
:documentation
   .ast/.asf automatically generated from VICON data using
   VICON BodyBuilder and BodyLanguage model FoxedUp or BRILLIANT.MOD
:root
   order TX TY TZ RX RY RZ
   axis XYZ
   position 0 0 0  
   orientation 0 0 0 
:bonedata
  begin
     id 1 
     name lhipjoint
     direction 0.722297 -0.617336 0.311742 
     length 2.6635 
     axis 0 0 0  XYZ
  end
  begin
     id 2 
     name lfemur
     direction 0.34202 -0.939693 0  
     length 7.39349  
     axis 0 0 20  XYZ
    dof rx ry rz
    limits (-160.0 20.0)
           (-70.0 70.0)
           (-60.0 70.0)
  end
  begin
     id 3 
     name ltibia
     direction 0.34202 -0.939693 0   
     length 7.36294   
     axis 0 0 20   XYZ
    dof rx
    limits (-10.0 170.0)
  end
  begin
     id 4 
     name lfoot
     direction 0.104879 -0.288152 0.951824   
     length 2.16981   
     axis -90 7.62852e-016 20   XYZ
    dof rx rz
    limits (-45.0 90.0)
           (-70.0 20.0)
  end
  begin
     id 5 
     name ltoes
     direction 1.53586e-011 -4.21895e-011 1   
     length 1.08218   
     axis -90 7.62852e-016 20   XYZ
    dof rx
    limits (-90.0 20.0)
  end
  begin
     id 6 
     name rhipjoint
     direction -0.75102 -0.589393 0.297631   
     length 2.78977  
     axis 0 0 0  XYZ 
  end
  begin
     id 7 
     name rfemur
     direction -0.34202 -0.939693 0   
     length 7.46076   
     axis 0 0 -20   XYZ
    dof rx ry rz
    limits (-160.0 20.0)
           (-70.0 70.0)
           (-70.0 60.0)
  end
  begin
     id 8 
     name rtibia
     direction -0.34202 -0.939693 0   
     length 7.31726   
     axis 0 0 -20   XYZ
    dof rx
    limits (-10.0 170.0)
 end
 begin
     id 9 
     name rfoot
     direction -0.107991 -0.296704 0.948844   
     length 2.09388  
     axis -90 -7.62852e-016 -20   XYZ
    dof rx rz
    limits (-45.0 90.0)
           (-20.0 70.0)
  end
  begin
     id 10 
     name rtoes
     direction -1.53559e-011 -4.21911e-011 1   
     length 1.04433   
     axis -90 -7.62852e-016 -20   XYZ
    dof rx
    limits (-90.0 20.0)
  end
  begin
     id 11 
     name lowerback
     direction 0.0165164 0.98272 0.184358   
     length 1.71896   
     axis 0 0 0   XYZ
    dof rx ry rz
    limits (-20.0 45.0)
           (-30.0 30.0)
           (-30.0 30.0)
  end
  begin
     id 12 
     name upperback
     direction -0.00887249 0.992297 0.123566   
     length 1.71504   
     axis 0 0 0   XYZ
    dof rx ry rz
    limits (-20.0 45.0)
           (-30.0 30.0)
           (-30.0 30.0)
  end
  begin
     id 13 
     name thorax
     direction -0.0157026 0.998908 0.0440032   
     length 1.77022   
     axis 0 0 0   XYZ
    dof rx ry rz
    limits (-20.0 45.0)
           (-30.0 30.0)
           (-30.0 30.0)
  end
  begin
     id 14 
     name lowerneck
     direction -0.0238856 0.998137 0.0561411   
     length 1.89341   
     axis 0 0 0   XYZ
    dof rx ry rz
    limits (-20.0 45.0)
           (-30.0 30.0)
           (-30.0 30.0)
  end
  begin
     id 15 
     name upperneck
     direction 0.0276574 0.952253 -0.304056   
     length 1.86999   
     axis 0 0 0   XYZ
    dof rx ry rz
    limits (-20.0 45.0)
           (-30.0 30.0)
           (-30.0 30.0)
  end
  begin
     id 16
     name head
     direction 0.00800083 0.994258 -0.106712  
     length 1.91492  
     axis 0 0 0   XYZ
    dof rx ry rz
    limits (-20.0 45.0)
           (-30.0 30.0)
           (-30.0 30.0)
  end
  begin
     id 17 
     name lclavicle
     direction 0.97203 0.225407 0.06595  
     length 3.34889  
     axis 0 0 0   XYZ
    dof ry rz
    limits (-20.0 10.0)
           (0.0 20.0)
  end
  begin
     id 18 
     name lhumerus
     direction 1 -4.48973e-011 2.20267e-027   
     length 4.85645   
     axis 180 -30 -90   XYZ
    dof rx ry rz
    limits (-60.0 90.0)
           (-90.0 90.0)
           (-90.0 90.0)
  end
  begin
     id 19
     name lradius
     direction 1 -4.4897e-011 4.60472e-027   
     length 2.79874   
     axis 180 -30 -90   XYZ
    dof rx
    limits (-10.0 170.0)
  end
  begin
     id 20
     name lwrist
     direction 1 -4.48952e-011 1.14928e-026   
     length 1.39937   
     axis -6.29373e-015 90 90   XYZ
    dof ry
    limits (-180.0 0.0)
 end
  begin
     id 21 
     name lhand
     direction 1 -4.48967e-011 2.29886e-026   
     length 0.573398   
     axis -1.46689e-014 90 90   XYZ
    dof rx rz
    limits (-90.0 90.0)
           (-45.0 45.0)
  end
  begin
     id 22 
     name lfingers
     direction 1 -4.48955e-011 4.59726e-026   
     length 0.462289   
     axis -2.93383e-014 90 90   XYZ
    dof rx
    limits (0.0 90.0)
  end
  begin
     id 23
     name lthumb
     direction 0.707107 -6.34866e-011 0.707107   
     length 0.663757   
     axis -90 45 5.69224e-014   XYZ
    dof rx rz
    limits (-45.0 45.0)
           (-45.0 45.0)
  end
  begin
     id 24 
     name rclavicle
     direction -0.981571 0.157346 0.108443   
     length 3.35257  
     axis 0 0 0   XYZ 
    dof ry rz
    limits (-10.0 20.0)
           (-20.0 0.0)
  end
  begin
     id 25 
     name rhumerus
     direction -1 -4.48967e-011 8.58308e-029  
     length 4.67018   
     axis 180 30 90   XYZ
    dof rx ry rz
    limits (-90.0 60.0)
           (-90.0 90.0)
           (-90.0 90.0)
  end
  begin
     id 26 
     name rradius
     direction -1 -4.48958e-011 4.52548e-027   
     length 2.65534   
     axis 180 30 90   XYZ
    dof rx
    limits (-10.0 170.0)
  end
  begin
     id 27 
     name rwrist
     direction -1 -4.48977e-011 1.14952e-026   
     length 1.32767   
     axis -6.29373e-015 -90 -90   XYZ
    dof ry
    limits (-180.0 0.0)
  end
  begin
     id 28
     name rhand
     direction -1 -4.48924e-011 2.29804e-026   
     length 0.594069   
     axis -1.46689e-014 -90 -90   XYZ
    dof rx rz
    limits (-90.0 90.0)
           (-45.0 45.0)
  end
  begin
     id 29
     name rfingers
     direction -1 -4.48998e-011 4.59888e-026   
     length 0.478954   
     axis -2.93383e-014 -90 -90   XYZ
    dof rx
    limits (0.0 90.0)
  end
  begin
     id 30
     name rthumb
     direction -0.707107 -6.34933e-011 0.707107   
     length 0.687685   
     axis -90 -45 -5.69224e-014   XYZ
    dof rx rz
    limits (-45.0 45.0)
           (-45.0 45.0)
  end
:hierarchy
  begin
    root lhipjoint rhipjoint lowerback
    lhipjoint lfemur
    lfemur ltibia
    ltibia lfoot
    lfoot ltoes
    rhipjoint rfemur
    rfemur rtibia
    rtibia rfoot
    rfoot rtoes
    lowerback upperback
    upperback thorax
    thorax lowerneck lclavicle rclavicle
    lowerneck upperneck
    upperneck head
    lclavicle lhumerus
    lhumerus lradius
    lradius lwrist
    lwrist lhand lthumb
    lhand lfingers
    rclavicle rhumerus
    rhumerus rradius
    rradius rwrist
    rwrist rhand rthumb
    rhand rfingers
  end

#!OML:ASF E:\pregnant2\Project 1\Capture day 1\Session 1\pregnant2.ASF
:FULLY-SPECIFIED
:DEGREES
176
root 3.95111 17.2021 44.4343 31.5054 14.6588 -0.417438
lowerback -20.6252 3.32632 1.4699
upperback -13.9441 4.34676 -4.57299
thorax -3.22958 2.01382 -4.97852
lowerneck -4.97567 15.7033 21.4471
upperneck 24.1287 20.1532 -2.91176
head 11.2071 10.9758 -1.65813
rclavicle 5.51627e-014 -3.18055e-015
rhumerus -51.0627 2.8944 -82.1098
rradius 35.2506
rwrist 6.6308
rhand -14.1355 -13.0781
rfingers 7.12502
rthumb 11.9985 -42.7142
lclavicle 5.51627e-014 -3.18055e-015
lhumerus -44.3696 -28.2664 90.2791
lradius 36.1912
lwrist 2.74978
lhand -10.939 24.7803
lfingers 7.12502
lthumb 15.0793 54.2111
rfemur -38.2725 12.3713 14.9014
rtibia 19.0815
rfoot -11.0641 -15.3354
rtoes -1.81349
lfemur -39.5436 -15.471 -13.5891
ltibia 18.5749
lfoot -4.90401 18.518
ltoes -16.1703
177
root 3.95373 17.2023 44.4363 31.4923 14.6796 -0.42409
lowerback -20.6241 3.34722 1.46059
upperback -13.9551 4.37627 -4.59618
thorax -3.23857 2.02865 -4.99348
lowerneck -5.0147 15.6676 21.3773
upperneck 24.1346 20.0851 -2.84132
head 11.1913 10.946 -1.63615
rclavicle 4.75095e-014 -6.36111e-015
rhumerus -50.8958 2.80319 -82.027
rradius 35.0437
rwrist 6.69217
rhand -14.1065 -13.027
rfingers 7.12502
rthumb 12.0264 -42.6615
lclavicle 4.75095e-014 -6.36111e-015
lhumerus -44.2533 -28.0565 90.0723
lradius 36.3042
lwrist 2.81267
lhand -10.8994 24.7652
lfingers 7.12502
lthumb 15.1174 54.1931
rfemur -38.2393 12.3862 14.9051
rtibia 19.0696
rfoot -11.0661 -15.3831
rtoes -1.83316
lfemur -39.5308 -15.4577 -13.6026
ltibia 18.5931
lfoot -4.92805 18.4689
ltoes -16.1644
178
root 3.95643 17.2025 44.4381 31.479 14.7105 -0.439141
lowerback -20.625 3.36894 1.46045
upperback -13.9637 4.40548 -4.61224
thorax -3.2438 2.04311 -5.00573
lowerneck -5.05774 15.6309 21.2946
upperneck 24.1325 20.0192 -2.78256
head 11.1731 10.9148 -1.61635
rclavicle 3.90612e-014 -4.45278e-014
rhumerus -50.7149 2.74022 -81.9517
rradius 34.8486
rwrist 6.74178
rhand -14.0931 -12.9984
rfingers 7.12502
rthumb 12.0394 -42.6321
lclavicle 3.90612e-014 -4.45278e-014
lhumerus -44.1294 -27.8398 89.8606
lradius 36.4345
lwrist 2.87016
lhand -10.8382 24.7439
lfingers 7.12502
lthumb 15.1763 54.1674
rfemur -38.204 12.3993 14.9195
rtibia 19.051
rfoot -11.0655 -15.4313
rtoes -1.83855
lfemur -39.5263 -15.4397 -13.6077
ltibia 18.6212
lfoot -4.95838 18.414
ltoes -16.1704
179
root 3.95901 17.2026 44.4398 31.4652 14.7493 -0.458174
lowerback -20.626 3.39075 1.46193
upperback -13.9696 4.43464 -4.6231
thorax -3.24624 2.05776 -5.01313
lowerneck -5.11225 15.5936 21.2024
upperneck 24.1329 19.954 -2.73413
head 11.1581 10.8818 -1.59784
rclavicle 7.21588e-014 1.43125e-014
rhumerus -50.5182 2.70081 -81.8827
rradius 34.6639
rwrist 6.79145
rhand -14.0882 -12.983
rfingers 7.12502
rthumb 12.0441 -42.6164
lclavicle 7.21588e-014 1.43125e-014
lhumerus -44.0046 -27.6196 89.6451
lradius 36.5872
lwrist 2.90988
lhand -10.7566 24.7209
lfingers 7.12502
lthumb 15.2549 54.1384
rfemur -38.1673 12.4191 14.9356
rtibia 19.0276
rfoot -11.0646 -15.4895
rtoes -1.83045
lfemur -39.5267 -15.4166 -13.6094
ltibia 18.6564
lfoot -4.99422 18.3531
ltoes -16.1883
180
root 3.96156 17.2027 44.4414 31.4488 14.7952 -0.477814
lowerback -20.621 3.41211 1.46367
upperback -13.9762 4.46322 -4.63056
thorax -3.25265 2.07221 -5.01746
lowerneck -5.17015 15.555 21.1055
upperneck 24.1355 19.8884 -2.691
head 11.1445 10.8478 -1.58027
rclavicle 8.79622e-014 1.59028e-015
rhumerus -50.3147 2.6867 -81.8228
rradius 34.4939
rwrist 6.84585
rhand -14.0989 -12.9742
rfingers 7.12502
rthumb 12.0338 -42.6082
lclavicle 8.79622e-014 1.59028e-015
lhumerus -43.8915 -27.4027 89.4344
lradius 36.7537
lwrist 2.93449
lhand -10.6753 24.69
lfingers 7.12502
lthumb 15.3332 54.1015
rfemur -38.1266 12.446 14.9493
rtibia 19.0012
rfoot -11.065 -15.5587
rtoes -1.81252
lfemur -39.528 -15.3941 -13.61
ltibia 18.6958
lfoot -5.03511 18.2879
ltoes -16.2216
181
root 3.96412 17.2027 44.4427 31.4307 14.8494 -0.499023
lowerback -20.6097 3.43375 1.46829
upperback -13.9834 4.49181 -4.63624
thorax -3.26287 2.08651 -5.02186
lowerneck -5.23887 15.5151 21.0059
upperneck 24.1468 19.8202 -2.64972
head 11.1359 10.8122 -1.5622
rclavicle 7.95139e-016 -1.98785e-014
rhumerus -50.1021 2.69318 -81.7718
rradius 34.3342
rwrist 6.90745
rhand -14.1156 -12.958
rfingers 7.12502
rthumb 12.0177 -42.5929
lclavicle 7.95139e-016 -1.98785e-014
lhumerus -43.7769 -27.1866 89.2239
lradius 36.9113
lwrist 2.93903
lhand -10.6069 24.6399
lfingers 7.12502
lthumb 15.3992 54.0464
rfemur -38.0848 12.4752 14.9643
rtibia 18.9751
rfoot -11.0675 -15.6348
rtoes -1.7933
lfemur -39.5294 -15.3696 -13.6096
ltibia 18.7349
lfoot -5.07412 18.2141
ltoes -16.2735
182
root 3.96669 17.2027 44.4437 31.413 14.9095 -0.518676
lowerback -20.5947 3.45392 1.4713
upperback -13.9941 4.51877 -4.64055
thorax -3.27915 2.10005 -5.02459
lowerneck -5.30452 15.4731 20.9094
upperneck 24.1621 19.7502 -2.61042
head 11.1288 10.7761 -1.54556
rclavicle 6.15239e-014 -2.38542e-015
rhumerus -49.8878 2.71771 -81.7282
rradius 34.1898
rwrist 6.98318
rhand -14.1297 -12.9416
rfingers 7.12502
rthumb 12.004 -42.5773
lclavicle 6.15239e-014 -2.38542e-015
lhumerus -43.6688 -26.9535 89.0072
lradius 37.063
lwrist 2.91933
lhand -10.5599 24.5767
lfingers 7.12502
lthumb 15.4445 53.9797
rfemur -38.0449 12.5041 14.9773
rtibia 18.9517
rfoot -11.0718 -15.7153
rtoes -1.77918
lfemur -39.5312 -15.3501 -13.6074
ltibia 18.7698
lfoot -5.10835 18.1405
ltoes -16.3327
183
root 3.96925 17.2027 44.4448 31.3965 14.9762 -0.535486
lowerback -20.5806 3.47326 1.47241
upperback -14.006 4.54504 -4.64556
thorax -3.2964 2.11335 -5.02716
lowerneck -5.37141 15.4293 20.8181
upperneck 24.1818 19.6772 -2.5715
head 11.1239 10.7391 -1.52981
rclavicle -2.56432e-014 -4.13472e-014
rhumerus -49.6681 2.7561 -81.692
rradius 34.0573
rwrist 7.06938
rhand -14.1463 -12.9179
rfingers 7.12502
rthumb 11.988 -42.5546
lclavicle -2.56432e-014 -4.13472e-014
lhumerus -43.5569 -26.7087 88.7834
lradius 37.1958
lwrist 2.90013
lhand -10.5509 24.4919
lfingers 7.12502
lthumb 15.4531 53.8942
rfemur -38.0054 12.5305 14.9887
rtibia 18.9312
rfoot -11.0793 -15.7995
rtoes -1.77493
lfemur -39.5321 -15.3375 -13.6037
ltibia 18.7975
lfoot -5.13887 18.0671
ltoes -16.3906
184
root 3.97177 17.2026 44.4459 31.3842 15.047 -0.547928
lowerback -20.5733 3.49126 1.46645
upperback -14.0212 4.57074 -4.65127
thorax -3.31463 2.12683 -5.02648
lowerneck -5.43203 15.382 20.726
upperneck 24.2044 19.6001 -2.52791
head 11.1181 10.701 -1.51352
rclavicle 3.30976e-014 1.59028e-015
rhumerus -49.448 2.81182 -81.6673
rradius 33.9321
rwrist 7.14966
rhand -14.1851 -12.8998
rfingers 7.12502
rthumb 11.9507 -42.5387
lclavicle 3.30976e-014 1.59028e-015
lhumerus -43.4443 -26.4421 88.5482
lradius 37.3226
lwrist 2.89019
lhand -10.5761 24.4021
lfingers 7.12502
lthumb 15.4288 53.8063
rfemur -37.9694 12.5525 14.997
rtibia 18.913
rfoot -11.0875 -15.8848
rtoes -1.76895
lfemur -39.5341 -15.3317 -13.5998
ltibia 18.8168
lfoot -5.15974 17.9975
ltoes -16.4431
185
root 3.97403 17.2027 44.447 31.3735 15.1233 -0.554937
lowerback -20.5651 3.50784 1.45348
upperback -14.0387 4.5958 -4.65903
thorax -3.33623 2.14035 -5.02436
lowerneck -5.49527 15.3301 20.6216
upperneck 24.2292 19.5131 -2.46621
head 11.109 10.6592 -1.49118
rclavicle -5.76476e-015 2.78299e-014
rhumerus -49.2227 2.87301 -81.645
rradius 33.8163
rwrist 7.24133
rhand -14.2118 -12.8854
rfingers 7.12502
rthumb 11.9248 -42.5258
lclavicle -5.76476e-015 2.78299e-014
lhumerus -43.3408 -26.1533 88.2991
lradius 37.4566
lwrist 2.89987
lhand -10.6264 24.3127
lfingers 7.12502
lthumb 15.3803 53.7206
rfemur -37.9325 12.5837 14.9953
rtibia 18.8935
rfoot -11.099 -15.9881
rtoes -1.75938
lfemur -39.5347 -15.3322 -13.5968
ltibia 18.8283
lfoot -5.17451 17.9292
ltoes -16.4871
186
root 3.97631 17.2028 44.4483 31.3676 15.2063 -0.560344
lowerback -20.5625 3.52534 1.44098
upperback -14.0588 4.62209 -4.66902
thorax -3.35769 2.15442 -5.02458
lowerneck -5.55775 15.2737 20.502
upperneck 24.2504 19.4166 -2.3846
head 11.0935 10.614 -1.46226
rclavicle -9.34288e-015 7.95139e-015
rhumerus -48.9915 2.93823 -81.6252
rradius 33.7051
rwrist 7.33959
rhand -14.2386 -12.8774
rfingers 7.12502
rthumb 11.899 -42.5193
lclavicle -9.34288e-015 7.95139e-015
lhumerus -43.2479 -25.8397 88.0323
lradius 37.6084
lwrist 2.92715
lhand -10.6918 24.2166
lfingers 7.12502
lthumb 15.3174 53.6294
rfemur -37.8972 12.6153 14.991
rtibia 18.8701
rfoot -11.1085 -16.1001
rtoes -1.74435
lfemur -39.5385 -15.338 -13.5904
ltibia 18.8337
lfoot -5.19041 17.8594
ltoes -16.5221
